<?xml version="1.0" encoding="utf-8"?>
<!-- Generator: Adobe Illustrator 17.0.0, SVG Export Plug-In . SVG Version: 6.00 Build 0)  -->
<!DOCTYPE svg PUBLIC "-//W3C//DTD SVG 1.1//EN" "http://www.w3.org/Graphics/SVG/1.1/DTD/svg11.dtd">
<svg version="1.1" id="Layer_1" xmlns="http://www.w3.org/2000/svg" xmlns:xlink="http://www.w3.org/1999/xlink" x="0px" y="0px"
	 width="595.28px" height="841.89px" viewBox="0 0 595.28 841.89" enable-background="new 0 0 595.28 841.89" xml:space="preserve">
<path fill="#4A4A4A" d="M78.463,183.406h-0.118c-6.422,0-11.627,5.205-11.627,11.627s5.205,11.627,11.627,11.627h0.118
	c6.422,0,11.627-5.205,11.627-11.627S84.885,183.406,78.463,183.406z"/>
<path fill="#4A4A4A" d="M136.051,183.406h-0.118c-6.422,0-11.627,5.205-11.627,11.627s5.205,11.627,11.627,11.627h0.118
	c6.422,0,11.627-5.205,11.627-11.627S142.473,183.406,136.051,183.406z"/>
<path fill="#4A4A4A" d="M193.639,183.406h-0.118c-6.422,0-11.627,5.205-11.627,11.627s5.205,11.627,11.627,11.627h0.118
	c6.422,0,11.627-5.205,11.627-11.627S200.061,183.406,193.639,183.406z"/>
<path fill="#4A4A4A" d="M516.935,183.406H292.624c-6.422,0-11.627,5.205-11.627,11.627c0,6.417,5.205,11.627,11.627,11.627h224.311
	c6.422,0,11.627-5.209,11.627-11.627C528.561,188.61,523.357,183.406,516.935,183.406z"/>
<path fill="#4A4A4A" d="M305.651,653.169c-3.056,0-6.045,1.244-8.22,3.406c-2.162,2.162-3.406,5.164-3.406,8.22
	s1.244,6.059,3.406,8.22c2.175,2.162,5.164,3.406,8.22,3.406c3.057,0,6.059-1.244,8.22-3.406c2.171-2.162,3.406-5.164,3.406-8.22
	s-1.235-6.059-3.406-8.22C311.71,654.413,308.708,653.169,305.651,653.169z"/>
<path fill="#4A4A4A" d="M558.343,127.721H36.937C16.572,127.721,0,144.293,0,164.658v474.827c0,20.369,16.572,36.937,36.937,36.937
	h220.01c6.422,0,11.627-5.205,11.627-11.627c0-6.422-5.205-11.627-11.627-11.627H36.937c-7.544,0-13.684-6.136-13.684-13.684
	V262.344h548.774v377.141c0,7.544-6.14,13.684-13.684,13.684H353.061c-6.422,0-11.627,5.205-11.627,11.627
	c0,6.422,5.205,11.627,11.627,11.627h205.281c20.365,0,36.937-16.568,36.937-36.937V164.658
	C595.28,144.293,578.708,127.721,558.343,127.721z M23.253,239.086v-74.428c0-7.544,6.14-13.684,13.684-13.684h521.406
	c7.544,0,13.684,6.14,13.684,13.684v74.433H23.253V239.086z"/>
<path fill="#4A4A4A" d="M207.355,395.132c0-23.081-18.775-41.856-41.856-41.856h-39.144c-6.422,0-11.627,5.205-11.627,11.627
	v120.916c0,6.422,5.205,11.627,11.627,11.627h39.144c23.081,0,41.856-18.775,41.856-41.856c0-11.876-4.978-22.604-12.953-30.229
	C202.377,417.735,207.355,407.008,207.355,395.132z M184.102,455.59c0,10.255-8.348,18.603-18.603,18.603h-27.518v-37.205h27.518
	C175.754,436.987,184.102,445.33,184.102,455.59z M137.981,413.734v-37.205h27.518c10.26,0,18.603,8.348,18.603,18.602
	c0,10.255-8.343,18.603-18.603,18.603H137.981z"/>
<path fill="#4A4A4A" d="M240.618,353.276c-6.422,0-11.627,5.205-11.627,11.627v94.025c0,21.241,17.281,38.518,38.518,38.518
	c6.422,0,11.627-5.205,11.627-11.627c0-6.422-5.205-11.627-11.627-11.627c-8.416,0-15.264-6.849-15.264-15.264v-94.025
	C252.244,358.481,247.039,353.276,240.618,353.276z"/>
<path fill="#4A4A4A" d="M377.709,455.345c0-23.217-18.884-42.105-42.101-42.105s-42.101,18.889-42.101,42.105
	s18.889,42.101,42.101,42.101C358.825,497.445,377.709,478.561,377.709,455.345z M316.76,455.345
	c0-10.396,8.457-18.852,18.848-18.852s18.848,8.457,18.848,18.852c0,10.391-8.452,18.848-18.848,18.848
	S316.76,465.736,316.76,455.345z"/>
<path fill="#4A4A4A" d="M438.803,530c-10.391,0-18.848-8.457-18.848-18.848c0-6.422-5.205-11.627-11.627-11.627
	c-6.422,0-11.627,5.205-11.627,11.627c0,23.217,18.889,42.101,42.101,42.101c23.217,0,42.105-18.884,42.105-42.101v-55.807
	c0-23.217-18.889-42.105-42.105-42.105c-23.212,0-42.101,18.889-42.101,42.105s18.889,42.101,42.101,42.101
	c6.776,0,13.175-1.617,18.852-4.474v18.18C457.655,521.543,449.199,530,438.803,530z M438.803,474.192
	c-10.391,0-18.848-8.457-18.848-18.848c0-10.396,8.457-18.852,18.848-18.852c10.396,0,18.852,8.457,18.852,18.852
	C457.655,465.736,449.199,474.192,438.803,474.192z"/>
<path fill="#4A4A4A" d="M125.998,611.386h343.283c6.422,0,11.627-5.205,11.627-11.627c0-6.422-5.205-11.627-11.627-11.627H125.998
	c-6.417,0-11.627,5.205-11.627,11.627C114.372,606.181,119.581,611.386,125.998,611.386z"/>
</svg>
