<?xml version="1.0" encoding="utf-8"?>
<!-- Generator: Adobe Illustrator 17.0.0, SVG Export Plug-In . SVG Version: 6.00 Build 0)  -->
<!DOCTYPE svg PUBLIC "-//W3C//DTD SVG 1.1//EN" "http://www.w3.org/Graphics/SVG/1.1/DTD/svg11.dtd">
<svg version="1.1" id="Capa_1" xmlns="http://www.w3.org/2000/svg" xmlns:xlink="http://www.w3.org/1999/xlink" x="0px" y="0px"
	 width="512px" height="512px" viewBox="0 0 512 512" enable-background="new 0 0 512 512" xml:space="preserve">
<g>
	<path fill="#4A4A4A" d="M363.328,0H183.292c-4.142,0-7.5,3.358-7.5,7.5s3.358,7.5,7.5,7.5h160.17L143.417,78.999
		c-10.162,2.441-17.242,11.468-17.242,21.87v317.758h-21.292c-4.134,0-7.497-3.363-7.497-7.497V22.497
		c0-4.134,3.363-7.497,7.497-7.497h43.41c4.142,0,7.5-3.358,7.5-7.5s-3.358-7.5-7.5-7.5h-43.41
		C92.478,0,82.385,10.092,82.385,22.497v388.634c0,12.405,10.092,22.497,22.497,22.497h21.292v55.875
		c0,12.405,10.092,22.497,22.497,22.497h258.446c12.405,0,22.497-10.092,22.497-22.497v-26.859c0-4.142-3.358-7.5-7.5-7.5
		s-7.5,3.358-7.5,7.5v26.859c0,4.134-3.363,7.497-7.497,7.497H148.672c-4.134,0-7.497-3.363-7.497-7.497v-63.375
		c0-10.845,0-311.552,0-325.258c0-4.101,3.385-7.497,7.497-7.497h258.446c4.134,0,7.497,3.363,7.497,7.497v326.775
		c0,4.142,3.358,7.5,7.5,7.5s7.5-3.358,7.5-7.5V100.869c0-12.405-10.092-22.497-22.497-22.497h-21.292V22.497
		C385.825,10.17,375.828,0,363.328,0L363.328,0z M194.602,78.373L370.81,22c0.01,0.162,0.016,0.327,0.016,0.497v55.875
		L194.602,78.373L194.602,78.373z"/>
	<path fill="#4A4A4A" d="M269.344,128.873c0-7.995-6.505-14.5-14.5-14.5h-78.169c-7.995,0-14.5,6.505-14.5,14.5v72.461
		c0,7.995,6.505,14.5,14.5,14.5h78.169c7.995,0,14.5-6.505,14.5-14.5V128.873z M254.344,200.833h-77.169v-71.461h77.169V200.833z"/>
	<path fill="#4A4A4A" d="M254.844,374.539h-78.169c-7.995,0-14.5,6.505-14.5,14.5V461.5c0,7.995,6.505,14.5,14.5,14.5h78.169
		c7.995,0,14.5-6.505,14.5-14.5v-72.461C269.344,381.044,262.839,374.539,254.844,374.539z M254.344,461h-77.169v-71.461h77.169V461
		z"/>
	<path fill="#4A4A4A" d="M269.344,263c0-7.995-6.505-14.5-14.5-14.5h-78.169c-7.995,0-14.5,6.505-14.5,14.5v72.461
		c0,7.995,6.505,14.5,14.5,14.5h78.169c7.995,0,14.5-6.505,14.5-14.5V263z M254.344,334.961h-77.169V263.5h77.169V334.961z"/>
	<path fill="#4A4A4A" d="M386.115,143.43h-92.681c-4.142,0-7.5,3.358-7.5,7.5s3.358,7.5,7.5,7.5h92.681c4.142,0,7.5-3.358,7.5-7.5
		S390.257,143.43,386.115,143.43z"/>
	<path fill="#4A4A4A" d="M293.434,186.776h34.667c4.142,0,7.5-3.358,7.5-7.5s-3.358-7.5-7.5-7.5h-34.667c-4.142,0-7.5,3.358-7.5,7.5
		S289.292,186.776,293.434,186.776z"/>
	<path fill="#4A4A4A" d="M386.115,277.557h-92.681c-4.142,0-7.5,3.358-7.5,7.5s3.358,7.5,7.5,7.5h92.681c4.142,0,7.5-3.358,7.5-7.5
		S390.257,277.557,386.115,277.557z"/>
	<path fill="#4A4A4A" d="M293.434,320.904h34.667c4.142,0,7.5-3.358,7.5-7.5s-3.358-7.5-7.5-7.5h-34.667c-4.142,0-7.5,3.358-7.5,7.5
		S289.292,320.904,293.434,320.904z"/>
	<path fill="#4A4A4A" d="M393.615,411.096c0-4.142-3.358-7.5-7.5-7.5h-92.681c-4.142,0-7.5,3.358-7.5,7.5s3.358,7.5,7.5,7.5h92.681
		C390.257,418.596,393.615,415.238,393.615,411.096z"/>
	<path fill="#4A4A4A" d="M293.434,431.943c-4.142,0-7.5,3.358-7.5,7.5s3.358,7.5,7.5,7.5h34.667c4.142,0,7.5-3.358,7.5-7.5
		s-3.358-7.5-7.5-7.5H293.434z"/>
</g>
</svg>
