<?xml version="1.0" encoding="utf-8"?>
<!-- Generator: Adobe Illustrator 17.0.0, SVG Export Plug-In . SVG Version: 6.00 Build 0)  -->
<!DOCTYPE svg PUBLIC "-//W3C//DTD SVG 1.1//EN" "http://www.w3.org/Graphics/SVG/1.1/DTD/svg11.dtd">
<svg version="1.1" id="Capa_1" xmlns="http://www.w3.org/2000/svg" xmlns:xlink="http://www.w3.org/1999/xlink" x="0px" y="0px"
	 width="595.28px" height="841.89px" viewBox="0 0 595.28 841.89" enable-background="new 0 0 595.28 841.89" xml:space="preserve">
<g>
	<g>
		<g>
			<path fill="#4A4A4A" d="M569.974,138.206H154.169c-13.969,0.016-25.289,11.336-25.306,25.306v114.689l-19.014-28.521
				c-8.703-13.128-26.207-17.067-39.695-8.931l-39.119,23.519c-12.811,7.517-22.209,19.707-26.219,34.009
				c-14.27,51.961-3.682,141.484,127.719,272.904c104.496,104.388,182.408,132.502,236.105,132.502
				c12.432,0.057,24.816-1.558,36.818-4.803c14.296-4.01,26.486-13.395,34.018-26.188l23.489-39.16
				c8.103-13.477,4.168-30.945-8.931-39.646l-93.67-62.441c-12.849-8.499-30.073-5.704-39.576,6.421l-27.271,35.06
				c-2.85,3.752-8.021,4.845-12.147,2.57l-5.19-2.859c-17.079-9.308-38.335-20.899-81.265-63.829
				c-4.645-4.645-8.852-8.991-12.802-13.149h387.861c13.934,0.01,25.251-11.253,25.306-25.187V163.511
				C595.264,149.542,583.944,138.222,569.974,138.206z M266.684,590.066l5.041,2.769c12.673,7.086,28.625,3.798,37.462-7.721
				l27.271-35.06c3.1-3.949,8.71-4.86,12.901-2.094l93.67,62.441c4.255,2.836,5.534,8.514,2.907,12.901l-23.489,39.16
				c-4.905,8.412-12.875,14.598-22.239,17.267c-46.91,12.901-129.009,1.985-253.612-122.628S11.118,350.396,23.988,303.526
				c2.667-9.363,8.85-17.331,17.257-22.239l39.16-23.5c4.388-2.621,10.062-1.343,12.901,2.907l62.47,93.67
				c2.77,4.189,1.86,9.804-2.094,12.901l-35.071,27.28c-11.517,8.835-14.805,24.783-7.721,37.453l2.778,5.041
				c9.923,18.2,22.259,40.846,67.224,85.801C225.857,567.797,248.494,580.141,266.684,590.066z M575.433,470.474
				c-0.033,2.985-2.474,5.381-5.458,5.359H164.211c-12.889-14.739-24.003-30.939-33.116-48.269l-2.859-5.21
				c-2.279-4.117-1.189-9.283,2.561-12.127l35.071-27.28c12.13-9.501,14.924-26.727,6.421-39.576l-23.579-35.388v-144.47
				c-0.016-1.453,0.554-2.85,1.58-3.877c1.027-1.027,2.425-1.597,3.877-1.58h415.807c1.453-0.016,2.85,0.554,3.877,1.58
				c1.027,1.027,1.597,2.425,1.58,3.877v306.962H575.433z"/>
			<path fill="#4A4A4A" d="M535.797,184.154L369.94,309.938c-4.692,3.41-11.047,3.41-15.739,0L188.406,184.154
				c-4.368-3.313-10.596-2.457-13.908,1.911c-3.313,4.368-2.457,10.596,1.911,13.908l165.816,125.773
				c11.797,8.715,27.898,8.715,39.695,0l165.866-125.773c2.099-1.591,3.48-3.952,3.837-6.561c0.357-2.61-0.337-5.254-1.932-7.351
				C546.378,181.7,540.161,180.847,535.797,184.154z"/>
			<path fill="#4A4A4A" d="M277.382,326.579L175.723,435.443c-3.738,4.009-3.518,10.29,0.491,14.027
				c4.009,3.738,10.29,3.518,14.027-0.491l101.66-108.913c3.359-4.052,2.969-10.021-0.886-13.604
				C287.158,322.88,281.176,322.931,277.382,326.579z"/>
			<path fill="#4A4A4A" d="M447.417,326.579c-3.738-4.009-10.018-4.23-14.027-0.491c-4.009,3.738-4.23,10.018-0.491,14.027
				l101.63,108.864c3.738,4.009,10.018,4.23,14.027,0.491c4.009-3.738,4.23-10.018,0.491-14.027L447.417,326.579z"/>
		</g>
	</g>
</g>
</svg>
