<?xml version="1.0" encoding="utf-8"?>
<!-- Generator: Adobe Illustrator 17.0.0, SVG Export Plug-In . SVG Version: 6.00 Build 0)  -->
<!DOCTYPE svg PUBLIC "-//W3C//DTD SVG 1.1//EN" "http://www.w3.org/Graphics/SVG/1.1/DTD/svg11.dtd">
<svg version="1.1" id="Layer_1" xmlns="http://www.w3.org/2000/svg" xmlns:xlink="http://www.w3.org/1999/xlink" x="0px" y="0px"
	 width="595.28px" height="595.28px" viewBox="0 0 595.28 595.28" enable-background="new 0 0 595.28 595.28" xml:space="preserve">
<g>
	<g>
		<g>
			<path fill="#4A4A4A" d="M216.23,0.001H45.323c-24.992,0-45.321,20.33-45.321,45.321v170.907c0,24.992,20.33,45.321,45.321,45.321
				H216.23c24.992,0,45.321-20.33,45.321-45.321V45.322C261.548,20.331,241.222,0.001,216.23,0.001z"/>
			<path fill="#4A4A4A" d="M549.957,0.001H379.05c-24.992,0-45.321,20.33-45.321,45.321v170.907
				c0,24.992,20.33,45.321,45.321,45.321h170.907c24.992,0,45.321-20.33,45.321-45.321V45.322
				C595.278,20.331,574.948,0.001,549.957,0.001z"/>
			<path fill="#4A4A4A" d="M216.23,333.731H45.323c-24.992,0-45.321,20.328-45.321,45.319v170.907
				c0,24.992,20.33,45.321,45.321,45.321H216.23c24.992,0,45.321-20.33,45.321-45.321V379.051
				C261.548,354.059,241.222,333.731,216.23,333.731z"/>
			<path fill="#4A4A4A" d="M549.957,333.731H379.05c-24.992,0-45.321,20.33-45.321,45.321v170.907
				c0,24.992,20.33,45.321,45.321,45.321h170.907c24.992-0.002,45.321-20.332,45.321-45.323V379.051
				C595.278,354.059,574.948,333.731,549.957,333.731z"/>
		</g>
	</g>
</g>
</svg>
