<?xml version="1.0" encoding="utf-8"?>
<!-- Generator: Adobe Illustrator 17.0.0, SVG Export Plug-In . SVG Version: 6.00 Build 0)  -->
<!DOCTYPE svg PUBLIC "-//W3C//DTD SVG 1.1//EN" "http://www.w3.org/Graphics/SVG/1.1/DTD/svg11.dtd">
<svg version="1.1" id="Capa_1" xmlns="http://www.w3.org/2000/svg" xmlns:xlink="http://www.w3.org/1999/xlink" x="0px" y="0px"
	 width="595.28px" height="841.89px" viewBox="0 0 595.28 841.89" enable-background="new 0 0 595.28 841.89" xml:space="preserve">
<g>
	<path fill="#4A4A4A" d="M372.694,293.531c6.555,0,11.876-5.308,11.876-11.876c0-6.567-5.321-11.876-11.876-11.876H209.63
		c-6.555,0-11.876,5.308-11.876,11.876c0,6.567,5.321,11.876,11.876,11.876H372.694z"/>
	<path fill="#4A4A4A" d="M536.27,269.78h-80.897c-6.555,0-11.876,5.308-11.876,11.876c0,6.567,5.321,11.876,11.876,11.876h69.021
		v401.303H70.885V293.531h65.066c6.555,0,11.876-5.308,11.876-11.876c0-6.567-5.321-11.876-11.876-11.876H59.01
		c-6.555,0-11.876,5.308-11.876,11.876v425.054c0,6.567,5.321,11.876,11.876,11.876H536.27c6.555,0,11.876-5.308,11.876-11.876
		V281.655C548.146,275.087,542.837,269.78,536.27,269.78z"/>
	<path fill="#4A4A4A" d="M412.858,320.239c6.555,0,11.876-5.308,11.876-11.876v-86.597c-0.001-54.284-58.607-98.461-130.93-98.461
		c-72.038,0-130.632,44.177-130.632,98.461v86.598c0,6.567,5.321,11.876,11.876,11.876c6.555,0,11.876-5.308,11.876-11.876v-86.598
		c0-41.197,47.954-74.71,107.177-74.71c58.927,0,106.881,33.513,106.881,74.71v86.598
		C400.982,314.931,406.291,320.239,412.858,320.239z"/>
	<path fill="#4A4A4A" d="M144.479,338.896c0,16.839,13.717,30.545,30.568,30.545s30.568-13.704,30.568-30.545
		c0-6.567-5.321-11.876-11.876-11.876c-6.555,0-11.876,5.308-11.876,11.876c0,3.742-3.052,6.794-6.817,6.794
		c-3.753,0-6.817-3.052-6.817-6.794c0-6.567-5.321-11.876-11.876-11.876S144.479,332.329,144.479,338.896z"/>
	<path fill="#4A4A4A" d="M412.858,369.44c16.851,0,30.568-13.704,30.568-30.545c0-6.567-5.321-11.876-11.876-11.876
		c-6.555,0-11.876,5.308-11.876,11.876c0,3.742-3.052,6.794-6.817,6.794c-3.765,0-6.817-3.052-6.817-6.794
		c0-6.567-5.321-11.876-11.876-11.876c-6.555,0-11.876,5.308-11.876,11.876C382.29,355.735,396.005,369.44,412.858,369.44z"/>
</g>
</svg>
